<svg width="60" height="60" viewBox="0 0 60 60" fill="none" xmlns="http://www.w3.org/2000/svg">
<path fill-rule="evenodd" clip-rule="evenodd" d="M0 30C0 13.4315 13.4315 0 30 0C46.5685 0 60 13.4315 60 30C60 46.5685 46.5685 60 30 60C13.4315 60 0 46.5685 0 30ZM12.9122 36.2455C14.35 34.8077 16.3 34 18.3333 34H31.6667C33.7 34 35.65 34.8077 37.0878 36.2455C38.5256 37.6833 39.3333 39.6333 39.3333 41.6667V45C39.3333 45.5523 38.8856 46 38.3333 46C37.781 46 37.3333 45.5523 37.3333 45V41.6667C37.3333 40.1638 36.7363 38.7224 35.6736 37.6597C34.6109 36.597 33.1696 36 31.6667 36H18.3333C16.8304 36 15.3891 36.597 14.3264 37.6597C13.2637 38.7224 12.6667 40.1638 12.6667 41.6667V45C12.6667 45.5523 12.219 46 11.6667 46C11.1144 46 10.6667 45.5523 10.6667 45V41.6667C10.6667 39.6333 11.4744 37.6833 12.9122 36.2455ZM19.3333 21.6667C19.3333 18.5371 21.8704 16 25 16C28.1296 16 30.6667 18.5371 30.6667 21.6667C30.6667 24.7963 28.1296 27.3333 25 27.3333C21.8704 27.3333 19.3333 24.7963 19.3333 21.6667ZM25 14C20.7658 14 17.3333 17.4325 17.3333 21.6667C17.3333 25.9008 20.7658 29.3333 25 29.3333C29.2342 29.3333 32.6667 25.9008 32.6667 21.6667C32.6667 17.4325 29.2342 14 25 14ZM42.3651 34.9667C42.5032 34.4319 43.0486 34.1104 43.5833 34.2484C45.2281 34.6731 46.6852 35.632 47.7259 36.9745C48.7667 38.3171 49.3321 39.9672 49.3333 41.6659V41.6667V45C49.3333 45.5523 48.8856 46 48.3333 46C47.781 46 47.3333 45.5523 47.3333 45V41.6674C47.3324 40.4119 46.9145 39.1922 46.1453 38.1999C45.376 37.2075 44.299 36.4988 43.0833 36.1849C42.5486 36.0468 42.227 35.5014 42.3651 34.9667ZM36.9147 14.2479C36.3797 14.1109 35.8349 14.4336 35.6979 14.9686C35.5609 15.5037 35.8836 16.0484 36.4186 16.1854C37.6375 16.4975 38.7179 17.2064 39.4894 18.2004C40.261 19.1943 40.6797 20.4168 40.6797 21.675C40.6797 22.9332 40.261 24.1557 39.4894 25.1496C38.7179 26.1436 37.6375 26.8525 36.4186 27.1646C35.8836 27.3016 35.5609 27.8463 35.6979 28.3814C35.8349 28.9164 36.3797 29.2391 36.9147 29.1021C38.5638 28.6798 40.0255 27.7207 41.0693 26.376C42.1132 25.0312 42.6797 23.3773 42.6797 21.675C42.6797 19.9727 42.1132 18.3188 41.0693 16.974C40.0255 15.6293 38.5638 14.6702 36.9147 14.2479Z" fill="url(#paint0_linear_91_46)"/>
<defs>
<linearGradient id="paint0_linear_91_46" x1="5.99999" y1="12" x2="54" y2="49" gradientUnits="userSpaceOnUse">
<stop stop-color="#00EE94"/>
<stop offset="1" stop-color="#00A4F7"/>
</linearGradient>
</defs>
</svg>
