<svg width="60" height="60" viewBox="0 0 60 60" fill="none" xmlns="http://www.w3.org/2000/svg">
<path d="M0 30.6118C0 23.7465 0 20.3138 1.5576 17.4682C3.1152 14.6226 5.96084 12.8565 11.6521 9.32438L17.6521 5.60061C23.6682 1.86687 26.6762 0 30 0C33.3238 0 36.3318 1.86687 42.3479 5.60061L48.3479 9.32438C54.0392 12.8565 56.8848 14.6226 58.4424 17.4682C60 20.3138 60 23.7465 60 30.6118V35.1749C60 46.8775 60 52.7289 56.4853 56.3644C52.9706 60 47.3137 60 36 60H24C12.6863 60 7.02944 60 3.51472 56.3644C0 52.7289 0 46.8775 0 35.1749V30.6118Z" fill="#C2DED3"/>
<path d="M22.04 39.8925C21.0417 39.1526 19.6325 39.362 18.8926 40.3603C18.1526 41.3586 18.362 42.7677 19.3603 43.5077C22.2775 45.6701 25.8452 46.9501 29.7001 46.9501C33.5551 46.9501 37.1227 45.6701 40.04 43.5077C41.0383 42.7677 41.2477 41.3586 40.5077 40.3603C39.7677 39.362 38.3586 39.1526 37.3603 39.8925C35.1753 41.5122 32.5378 42.4501 29.7001 42.4501C26.8624 42.4501 24.225 41.5122 22.04 39.8925Z" fill="white"/>
</svg>
