<svg width="48" height="48" viewBox="0 0 48 48" fill="none" xmlns="http://www.w3.org/2000/svg">
<path fill-rule="evenodd" clip-rule="evenodd" d="M48 24C48 37.2548 37.2548 48 24 48C10.7452 48 0 37.2548 0 24C0 10.7452 10.7452 0 24 0C37.2548 0 48 10.7452 48 24ZM8.55025 28.5503C9.86301 27.2375 11.6435 26.5 13.5 26.5H25.5C27.3565 26.5 29.137 27.2375 30.4497 28.5503C31.7625 29.863 32.5 31.6435 32.5 33.5V36.5C32.5 37.0523 32.0523 37.5 31.5 37.5C30.9477 37.5 30.5 37.0523 30.5 36.5V33.5C30.5 32.1739 29.9732 30.9021 29.0355 29.9645C28.0979 29.0268 26.8261 28.5 25.5 28.5H13.5C12.1739 28.5 10.9021 29.0268 9.96447 29.9645C9.02678 30.9021 8.5 32.1739 8.5 33.5V36.5C8.5 37.0523 8.05229 37.5 7.5 37.5C6.94772 37.5 6.5 37.0523 6.5 36.5V33.5C6.5 31.6435 7.2375 29.863 8.55025 28.5503ZM14.5 15.5C14.5 12.7386 16.7386 10.5 19.5 10.5C22.2614 10.5 24.5 12.7386 24.5 15.5C24.5 18.2614 22.2614 20.5 19.5 20.5C16.7386 20.5 14.5 18.2614 14.5 15.5ZM19.5 8.5C15.634 8.5 12.5 11.634 12.5 15.5C12.5 19.366 15.634 22.5 19.5 22.5C23.366 22.5 26.5 19.366 26.5 15.5C26.5 11.634 23.366 8.5 19.5 8.5ZM35.0318 27.445C35.1698 26.9103 35.7153 26.5887 36.25 26.7268C37.7517 27.1145 39.0822 27.99 40.0324 29.2158C40.9826 30.4416 41.4988 31.9483 41.5 33.4993L41.5 33.5L41.5 36.5C41.5 37.0523 41.0523 37.5 40.5 37.5C39.9477 37.5 39.5 37.0523 39.5 36.5L39.5 33.5007L39.5 33.5004C39.4991 32.3927 39.1304 31.3166 38.4517 30.4411C37.773 29.5656 36.8227 28.9402 35.75 28.6632C35.2153 28.5252 34.8937 27.9797 35.0318 27.445ZM30.248 8.72625C29.713 8.58926 29.1682 8.91193 29.0312 9.44696C28.8943 9.98199 29.2169 10.5268 29.752 10.6637C30.8275 10.9391 31.7808 11.5646 32.4615 12.4416C33.1423 13.3187 33.5118 14.3973 33.5118 15.5075C33.5118 16.6177 33.1423 17.6964 32.4615 18.5734C31.7808 19.4504 30.8275 20.0759 29.752 20.3512C29.2169 20.4882 28.8943 21.033 29.0312 21.568C29.1682 22.1031 29.713 22.4257 30.248 22.2887C31.7538 21.9032 33.0884 21.0275 34.0414 19.7997C34.9945 18.5719 35.5118 17.0618 35.5118 15.5075C35.5118 13.9532 34.9945 12.4431 34.0414 11.2153C33.0884 9.98748 31.7538 9.11178 30.248 8.72625Z" fill="url(#paint0_linear_91_63)"/>
<defs>
<linearGradient id="paint0_linear_91_63" x1="7" y1="6" x2="40" y2="43" gradientUnits="userSpaceOnUse">
<stop stop-color="#00EA97"/>
<stop offset="1" stop-color="#00A8F1"/>
</linearGradient>
</defs>
</svg>
